<?xml version="1.0" encoding="utf-8"?>
<!-- Generator: Adobe Illustrator 25.2.0, SVG Export Plug-In . SVG Version: 6.00 Build 0)  -->
<svg version="1.1" id="Layer_1" xmlns="http://www.w3.org/2000/svg" xmlns:xlink="http://www.w3.org/1999/xlink" x="0px" y="0px"
	 viewBox="0 0 1280 1024" style="enable-background:new 0 0 1280 1024;" xml:space="preserve">
<style type="text/css">
	.st0{fill:#FFFFFF;}
</style>
<g>
	<path class="st0" d="M667.22,569.34c0,21.53-12.19,38.99-27.22,38.99c-15.04,0-27.22-17.45-27.22-38.99H667.22z"/>
	<circle class="st0" cx="728.22" cy="476.21" r="21.54"/>
	<path class="st0" d="M850.13,434.12v-60.72l57.1-54.56l66.08-256.97l-125.41,59.4v128.04c0,0-91.08-69.96-201.97-67.32
		c-110.88,2.64-205.93,67.32-205.93,67.32V125.22L306.69,61.86l63.36,252.13l59.4,59.4v60.72l-59.4,216.49l67.32,135.96l-6.6,30.36
		l66,51.48v25.08L640,962.14l137.95-75.24l-2.22-18.48l73.16-49.77l-11.67-36.36l74.09-125.96L850.13,434.12z M551.98,419.66
		c73.24-9.46,86.94,18.18,88.12,21.92c1.18-3.74,14.88-31.38,88.12-21.92c77.05,9.95,82.19,72.47,82.19,72.47l-39.81,77.21
		l-130.5-63.13l-130.5,63.13l-39.81-77.21C469.79,492.13,474.93,429.61,551.98,419.66z M391.12,657.34l48.94-170.28l50.98,94.82
		l-42.82,170.28L391.12,657.34z M457.17,810.52l48.91-219.94l48.91-12.46l-49.84,267.91L457.17,810.52z M640,935.91L523.14,874.9
		l58.7-316.5L640,529.42l60.06,28.98l54.15,316.5L640,935.91z M774.85,846.03l-49.84-267.91l48.91,12.46l48.91,219.94L774.85,846.03
		z M831.78,752.17l-42.82-170.28l50.98-94.82l48.94,170.28L831.78,752.17z"/>
	<path class="st0" d="M523.62,447.93h67.5c0,0,16.36,57.27-30.68,57.27C504.78,505.21,523.62,447.93,523.62,447.93z"/>
</g>
</svg>
